<mxfile host="app.diagrams.net" modified="2024-04-06T18:50:39.006Z" agent="Mozilla/5.0 (Windows NT 10.0; Win64; x64) AppleWebKit/537.36 (KHTML, like Gecko) Chrome/125.0.0.0 Safari/537.36 Edg/125.0.0.0" version="24.2.2" etag="FOyMowKCbRkEE2PWuGE0" type="github">
  <diagram name="Page-1" id="QXEf5HsJtCF_BVBvZmcl">
    <mxGraphModel>
      <root>
        <mxCell id="0" />
        <mxCell id="1" parent="0" />
      </root>
    </mxGraphModel>
  </diagram>
</mxfile>
